# AST/ASF file generated using VICON BodyLanguage
# -----------------------------------------------
:version 1.10
:name VICON
:units
  mass 1.0
  length 0.45
  angle deg
:documentation
   .ast/.asf automatically generated from VICON data using
   VICON BodyBuilder and BodyLanguage model FoxedUp or BRILLIANT.MOD
:root
   order TX TY TZ RX RY RZ
   axis XYZ
   position 0 0 0  
   orientation 0 0 0 
:bonedata
  begin
     id 1 
     name lhipjoint
     direction 0.602128 -0.715006 0.355257 
     length 2.21237 
     axis 0 0 0  XYZ
  end
  begin
     id 2 
     name lfemur
     direction 0.34202 -0.939693 0  
     length 6.71649  
     axis 0 0 20  XYZ
    dof rx ry rz
    limits (-160.0 20.0)
           (-70.0 70.0)
           (-60.0 70.0)
  end
  begin
     id 3 
     name ltibia
     direction 0.34202 -0.939693 0   
     length 6.97123   
     axis 0 0 20   XYZ
    dof rx
    limits (-10.0 170.0)
  end
  begin
     id 4 
     name lfoot
     direction 0.0655697 -0.180151 0.981451   
     length 1.80924   
     axis -90 7.62852e-016 20   XYZ
    dof rx rz
    limits (-45.0 90.0)
           (-70.0 20.0)
  end
  begin
     id 5 
     name ltoes
     direction 1.53545e-011 -4.21827e-011 1   
     length 0.916331   
     axis -90 7.62852e-016 20   XYZ
    dof rx
    limits (-90.0 20.0)
  end
  begin
     id 6 
     name rhipjoint
     direction -0.625414 -0.698792 0.347201   
     length 2.2637  
     axis 0 0 0  XYZ 
  end
  begin
     id 7 
     name rfemur
     direction -0.34202 -0.939693 0   
     length 7.07595   
     axis 0 0 -20   XYZ
    dof rx ry rz
    limits (-160.0 20.0)
           (-70.0 70.0)
           (-70.0 60.0)
  end
  begin
     id 8 
     name rtibia
     direction -0.34202 -0.939693 0   
     length 7.22924   
     axis 0 0 -20   XYZ
    dof rx
    limits (-10.0 170.0)
 end
 begin
     id 9 
     name rfoot
     direction -0.0766747 -0.210662 0.974547   
     length 1.98482  
     axis -90 -7.62852e-016 -20   XYZ
    dof rx rz
    limits (-45.0 90.0)
           (-20.0 70.0)
  end
  begin
     id 10 
     name rtoes
     direction -1.53532e-011 -4.21867e-011 1   
     length 0.999842   
     axis -90 -7.62852e-016 -20   XYZ
    dof rx
    limits (-90.0 20.0)
  end
  begin
     id 11 
     name lowerback
     direction -0.0224668 0.997354 -0.0691422   
     length 2.09945   
     axis 0 0 0   XYZ
    dof rx ry rz
    limits (-20.0 45.0)
           (-30.0 30.0)
           (-30.0 30.0)
  end
  begin
     id 12 
     name upperback
     direction 0.0134698 0.998451 -0.0539888   
     length 2.09758   
     axis 0 0 0   XYZ
    dof rx ry rz
    limits (-20.0 45.0)
           (-30.0 30.0)
           (-30.0 30.0)
  end
  begin
     id 13 
     name thorax
     direction 0.0241905 0.99948 -0.0213333   
     length 2.10428   
     axis 0 0 0   XYZ
    dof rx ry rz
    limits (-20.0 45.0)
           (-30.0 30.0)
           (-30.0 30.0)
  end
  begin
     id 14 
     name lowerneck
     direction -0.00866847 0.995978 0.0891737   
     length 1.3959   
     axis 0 0 0   XYZ
    dof rx ry rz
    limits (-20.0 45.0)
           (-30.0 30.0)
           (-30.0 30.0)
  end
  begin
     id 15 
     name upperneck
     direction 0.0680679 0.992203 0.104404   
     length 1.39452   
     axis 0 0 0   XYZ
    dof rx ry rz
    limits (-20.0 45.0)
           (-30.0 30.0)
           (-30.0 30.0)
  end
  begin
     id 16
     name head
     direction 0.0242216 0.999358 0.0264054  
     length 1.40433  
     axis 0 0 0   XYZ
    dof rx ry rz
    limits (-20.0 45.0)
           (-30.0 30.0)
           (-30.0 30.0)
  end
  begin
     id 17 
     name lclavicle
     direction 0.929368 0.362991 -0.0671771  
     length 3.04887  
     axis 0 0 0   XYZ
    dof ry rz
    limits (-20.0 10.0)
           (0.0 20.0)
  end
  begin
     id 18 
     name lhumerus
     direction 1 -4.48967e-011 -7.13741e-028   
     length 4.77195   
     axis -180 -30 -90   XYZ
    dof rx ry rz
    limits (-60.0 90.0)
           (-90.0 90.0)
           (-90.0 90.0)
  end
  begin
     id 19
     name lradius
     direction 1 -4.48977e-011 3.60404e-027   
     length 2.98444   
     axis -180 -30 -90   XYZ
    dof rx
    limits (-10.0 170.0)
  end
  begin
     id 20
     name lwrist
     direction 1 -4.48997e-011 7.54877e-027   
     length 1.49222   
     axis -7.18178e-015 90 90   XYZ
    dof ry
    limits (-180.0 0.0)
 end
  begin
     id 21 
     name lhand
     direction 1 -4.489e-011 1.51105e-026   
     length 0.992285   
     axis -9.63605e-015 90 90   XYZ
    dof rx rz
    limits (-90.0 90.0)
           (-45.0 45.0)
  end
  begin
     id 22 
     name lfingers
     direction 1 -4.48998e-011 3.01948e-026   
     length 0.800006   
     axis -1.92718e-014 90 90   XYZ
    dof rx
    limits (0.0 90.0)
  end
  begin
     id 23
     name lthumb
     direction 0.707107 -6.34881e-011 0.707107   
     length 1.14865   
     axis -90 45 -3.53137e-014   XYZ
    dof rx rz
    limits (-45.0 45.0)
           (-45.0 45.0)
  end
  begin
     id 24 
     name rclavicle
     direction -0.945672 0.324529 0.0196374   
     length 3.4236  
     axis 0 0 0   XYZ 
    dof ry rz
    limits (-10.0 20.0)
           (-20.0 0.0)
  end
  begin
     id 25 
     name rhumerus
     direction -1 -4.4896e-011 1.02757e-029  
     length 4.62052   
     axis -180 30 90   XYZ
    dof rx ry rz
    limits (-90.0 60.0)
           (-90.0 90.0)
           (-90.0 90.0)
  end
  begin
     id 26 
     name rradius
     direction -1 -4.48982e-011 3.85962e-027   
     length 2.95332   
     axis -180 30 90   XYZ
    dof rx
    limits (-10.0 170.0)
  end
  begin
     id 27 
     name rwrist
     direction -1 -4.48961e-011 7.55118e-027   
     length 1.47666   
     axis -7.18178e-015 -90 -90   XYZ
    dof ry
    limits (-180.0 0.0)
  end
  begin
     id 28
     name rhand
     direction -1 -4.48984e-011 1.50994e-026   
     length 0.990956   
     axis -9.63605e-015 -90 -90   XYZ
    dof rx rz
    limits (-90.0 90.0)
           (-45.0 45.0)
  end
  begin
     id 29
     name rfingers
     direction -1 -4.4892e-011 3.02158e-026   
     length 0.798934   
     axis -1.92718e-014 -90 -90   XYZ
    dof rx
    limits (0.0 90.0)
  end
  begin
     id 30
     name rthumb
     direction -0.707107 -6.34916e-011 0.707107   
     length 1.14711   
     axis -90 -45 3.53137e-014   XYZ
    dof rx rz
    limits (-45.0 45.0)
           (-45.0 45.0)
  end
:hierarchy
  begin
    root lhipjoint rhipjoint lowerback
    lhipjoint lfemur
    lfemur ltibia
    ltibia lfoot
    lfoot ltoes
    rhipjoint rfemur
    rfemur rtibia
    rtibia rfoot
    rfoot rtoes
    lowerback upperback
    upperback thorax
    thorax lowerneck lclavicle rclavicle
    lowerneck upperneck
    upperneck head
    lclavicle lhumerus
    lhumerus lradius
    lradius lwrist
    lwrist lhand lthumb
    lhand lfingers
    rclavicle rhumerus
    rhumerus rradius
    rradius rwrist
    rwrist rhand rthumb
    rhand rfingers
  end

#!OML:ASF H:\ManfredObstacles\Project 1\Capture day 1\Session 1\Male.ASF
:FULLY-SPECIFIED
:DEGREES
34
root 10.7861 16.0138 34.1461 -170.217 -11.0213 -178.318
lowerback -8.86062 -2.67063 -3.19618
upperback 2.2028 -3.39755 2.41044
thorax 7.64881 -1.88283 3.81993
lowerneck 0.930533 -2.63204 -4.7692
upperneck -4.13499 -3.50417 10.0399
head -1.21063 -1.94006 4.19549
rclavicle -8.04829e-014 1.23246e-014
rhumerus -38.6153 -29.0522 -70.2999
rradius 23.9497
rwrist 36.0617
rhand -1.23833 -5.29228
rfingers 7.12502
rthumb 24.4037 -33.7582
lclavicle -8.04829e-014 1.23246e-014
lhumerus -26.5964 12.1494 86.2751
lradius 18.3624
lwrist -31.1508
lhand -8.68701 8.29965
lfingers 7.12502
lthumb 17.2477 37.5542
rfemur -31.4511 -2.29139 19.5449
rtibia 32.9739
rfoot -20.8664 1.69142
rtoes 10.5258
lfemur -4.44012 -1.72448 -19.4581
ltibia 14.5819
lfoot -12.7568 -9.62139
ltoes 2.83036
35
root 10.8134 16.0114 34.0579 -170.184 -10.9653 -178.3
lowerback -8.88447 -2.79924 -3.22633
upperback 2.25382 -3.57547 2.49734
thorax 7.74311 -1.97734 3.89834
lowerneck 0.731546 -2.52306 -5.07328
upperneck -4.02397 -3.36237 10.1784
head -1.14406 -1.86042 4.29797
rclavicle 2.41275e-014 -2.10712e-014
rhumerus -38.4862 -29.038 -70.1751
rradius 23.7176
rwrist 36.0821
rhand -1.24005 -5.27913
rfingers 7.12502
rthumb 24.4021 -33.7452
lclavicle 2.41275e-014 -2.10712e-014
lhumerus -26.4877 12.5022 86.2408
lradius 18.286
lwrist -31.2557
lhand -8.79391 8.13573
lfingers 7.12502
lthumb 17.1448 37.3993
rfemur -31.2682 -2.16647 19.724
rtibia 33.2029
rfoot -21.0695 1.7509
rtoes 11.5551
lfemur -4.09412 -1.94034 -19.2959
ltibia 14.5141
lfoot -12.7029 -9.32882
ltoes 3.16615
36
root 10.8408 16.0139 33.9683 -170.096 -10.8764 -178.307
lowerback -8.98087 -2.82093 -3.15179
upperback 2.29645 -3.60712 2.45024
thorax 7.83924 -1.98954 3.79628
lowerneck 0.675394 -2.50923 -5.05847
upperneck -3.98319 -3.34626 10.2093
head -1.1218 -1.8521 4.30395
rclavicle 9.16894e-015 4.96962e-016
rhumerus -38.6161 -29.4087 -69.9717
rradius 23.5629
rwrist 36.2694
rhand -1.27151 -5.18803
rfingers 7.12502
rthumb 24.3719 -33.6582
lclavicle 9.16894e-015 4.96962e-016
lhumerus -26.3634 12.4207 86.176
lradius 18.2447
lwrist -31.1668
lhand -8.84637 8.32135
lfingers 7.12502
lthumb 17.0943 37.5893
rfemur -31.1625 -2.05938 19.8794
rtibia 33.4338
rfoot -21.2241 1.7463
rtoes 11.4193
lfemur -3.76264 -2.30625 -19.1677
ltibia 14.4134
lfoot -12.512 -8.87708
ltoes 3.5189
37
root 10.874 16.0162 33.875 -169.988 -10.7842 -178.229
lowerback -9.08578 -2.78629 -2.98112
upperback 2.28103 -3.57151 2.37883
thorax 7.86293 -1.96102 3.626
lowerneck 0.747939 -2.56533 -4.8708
upperneck -4.00772 -3.42126 10.1293
head -1.14039 -1.89353 4.24027
rclavicle 4.99446e-015 -3.97569e-015
rhumerus -38.9905 -29.7089 -69.8022
rradius 23.5956
rwrist 36.3403
rhand -1.34016 -5.3323
rfingers 7.12502
rthumb 24.3061 -33.8113
lclavicle 4.99446e-015 -3.97569e-015
lhumerus -26.3161 12.0485 86.085
lradius 18.2439
lwrist -31.0123
lhand -8.92877 8.40912
lfingers 7.12502
lthumb 17.015 37.6839
rfemur -31.1141 -1.95681 20.1674
rtibia 33.6676
rfoot -21.4422 1.61645
rtoes 10.6335
lfemur -3.42591 -2.62147 -18.9186
ltibia 14.3056
lfoot -12.532 -8.4328
ltoes 1.75684
38
root 10.9124 16.0151 33.7755 -169.926 -10.6829 -178.189
lowerback -9.13333 -2.85421 -3.04703
upperback 2.26264 -3.66041 2.45105
thorax 7.88876 -2.01038 3.72354
lowerneck 0.758794 -2.53553 -4.97266
upperneck -4.02178 -3.3802 10.1235
head -1.14901 -1.87088 4.2589
rclavicle -3.10601e-015 -1.98785e-014
rhumerus -39.183 -29.6567 -69.6148
rradius 23.6079
rwrist 36.517
rhand -1.3402 -5.4585
rfingers 7.12502
rthumb 24.3061 -33.9375
lclavicle -3.10601e-015 -1.98785e-014
lhumerus -26.2963 12.1267 86.0531
lradius 18.2311
lwrist -30.9611
lhand -8.92645 8.34642
lfingers 7.12502
lthumb 17.0172 37.621
rfemur -30.9596 -1.85416 20.4106
rtibia 33.8741
rfoot -21.7818 1.72478
rtoes 10.9714
lfemur -3.02695 -2.9213 -18.686
ltibia 14.2822
lfoot -12.5199 -8.11102
ltoes 0.432254
39
root 10.9548 16.0142 33.6694 -169.919 -10.4831 -178.212
lowerback -9.10739 -2.87283 -3.15156
upperback 2.22467 -3.66979 2.42861
thorax 7.83945 -2.01732 3.75889
lowerneck 0.841638 -2.52627 -4.91384
upperneck -3.95726 -3.37281 10.1207
head -1.14455 -1.86873 4.2469
rclavicle -4.1546e-014 -4.27387e-015
rhumerus -39.4574 -29.8794 -69.3614
rradius 23.5009
rwrist 36.7968
rhand -1.31606 -5.39661
rfingers 7.12502
rthumb 24.3292 -33.8725
lclavicle -4.1546e-014 -4.27387e-015
lhumerus -26.3323 12.171 85.9109
lradius 18.1629
lwrist -30.9202
lhand -8.83914 8.54315
lfingers 7.12502
lthumb 17.1013 37.8105
rfemur -30.6577 -1.65625 20.5499
rtibia 34.0219
rfoot -22.192 2.01957
rtoes 11.385
lfemur -2.66486 -3.19024 -18.5204
ltibia 14.4074
lfoot -12.2571 -7.82745
ltoes 1.54982
